<svg xmlns="http://www.w3.org/2000/svg" viewBox="0 0 226 160" width="226" height="160">
<defs><linearGradient id="steel" x1="0" y1="0" x2="0" y2="1"><stop offset="0" stop-color="#788696"/><stop offset="0.42" stop-color="#46515f"/><stop offset="1" stop-color="#202833"/></linearGradient></defs>
<path d="M 61.0 2.0 L 89.0 2.0 L 89.0 3.0 L 95.0 3.0 L 95.0 4.0 L 99.0 4.0 L 99.0 5.0 L 103.0 5.0 L 103.0 6.0 L 107.0 6.0 L 107.0 7.0 L 110.0 7.0 L 112.0 9.0 L 115.0 9.0 L 115.0 10.0 L 121.0 12.0 L 121.0 13.0 L 124.0 13.0 L 124.0 14.0 L 129.0 15.0 L 132.0 18.0 L 139.0 17.0 L 141.0 20.0 L 143.0 20.0 L 146.0 29.0 L 150.0 32.0 L 150.0 34.0 L 152.0 36.0 L 154.0 36.0 L 155.0 39.0 L 157.0 39.0 L 158.0 41.0 L 162.0 42.0 L 165.0 45.0 L 167.0 44.0 L 170.0 47.0 L 175.0 47.0 L 178.0 51.0 L 180.0 51.0 L 181.0 54.0 L 195.0 68.0 L 195.0 70.0 L 197.0 71.0 L 197.0 73.0 L 200.0 75.0 L 200.0 77.0 L 202.0 78.0 L 202.0 80.0 L 206.0 84.0 L 206.0 86.0 L 207.0 86.0 L 207.0 88.0 L 209.0 90.0 L 210.0 95.0 L 213.0 97.0 L 212.0 100.0 L 214.0 100.0 L 216.0 102.0 L 215.0 106.0 L 217.0 106.0 L 219.0 108.0 L 219.0 111.0 L 218.0 112.0 L 220.0 112.0 L 222.0 114.0 L 221.0 118.0 L 224.0 119.0 L 224.0 126.0 L 222.0 127.0 L 223.0 132.0 L 222.0 132.0 L 221.0 141.0 L 220.0 141.0 L 220.0 157.0 L 219.0 158.0 L 214.0 158.0 L 212.0 156.0 L 196.0 157.0 L 196.0 156.0 L 193.0 156.0 L 193.0 155.0 L 189.0 154.0 L 183.0 148.0 L 183.0 146.0 L 181.0 145.0 L 181.0 142.0 L 180.0 142.0 L 180.0 138.0 L 179.0 138.0 L 179.0 129.0 L 180.0 129.0 L 180.0 125.0 L 182.0 123.0 L 182.0 118.0 L 183.0 118.0 L 182.0 117.0 L 181.0 110.0 L 177.0 106.0 L 171.0 104.0 L 171.0 102.0 L 170.0 102.0 L 170.0 95.0 L 169.0 95.0 L 169.0 92.0 L 166.0 89.0 L 166.0 87.0 L 162.0 83.0 L 160.0 83.0 L 158.0 81.0 L 153.0 81.0 L 153.0 73.0 L 151.0 71.0 L 151.0 68.0 L 146.0 63.0 L 140.0 62.0 L 140.0 61.0 L 133.0 61.0 L 133.0 62.0 L 130.0 62.0 L 130.0 63.0 L 126.0 64.0 L 123.0 68.0 L 120.0 68.0 L 116.0 64.0 L 115.0 58.0 L 113.0 57.0 L 113.0 55.0 L 103.0 45.0 L 101.0 45.0 L 99.0 42.0 L 97.0 42.0 L 93.0 38.0 L 91.0 38.0 L 91.0 37.0 L 89.0 37.0 L 89.0 36.0 L 87.0 36.0 L 87.0 35.0 L 79.0 32.0 L 77.0 30.0 L 74.0 30.0 L 74.0 29.0 L 71.0 29.0 L 71.0 28.0 L 67.0 28.0 L 67.0 27.0 L 63.0 27.0 L 63.0 26.0 L 59.0 26.0 L 59.0 25.0 L 51.0 25.0 L 51.0 24.0 L 24.0 25.0 L 24.0 26.0 L 20.0 26.0 L 20.0 27.0 L 16.0 27.0 L 16.0 28.0 L 7.0 30.0 L 4.0 33.0 L 2.0 33.0 L 11.0 23.0 L 13.0 23.0 L 15.0 20.0 L 17.0 20.0 L 21.0 16.0 L 23.0 16.0 L 23.0 15.0 L 25.0 15.0 L 25.0 14.0 L 27.0 14.0 L 27.0 13.0 L 35.0 10.0 L 35.0 9.0 L 38.0 9.0 L 40.0 7.0 L 47.0 6.0 L 47.0 5.0 L 50.0 5.0 L 50.0 4.0 L 55.0 4.0 L 55.0 3.0 L 61.0 3.0 Z M 198.0 120.0 L 195.0 121.0 L 195.0 122.0 L 193.0 122.0 L 188.0 127.0 L 188.0 129.0 L 186.0 131.0 L 186.0 141.0 L 187.0 141.0 L 187.0 144.0 L 189.0 145.0 L 189.0 147.0 L 191.0 149.0 L 196.0 150.0 L 196.0 151.0 L 201.0 151.0 L 201.0 150.0 L 204.0 150.0 L 204.0 149.0 L 208.0 148.0 L 211.0 145.0 L 211.0 143.0 L 213.0 142.0 L 213.0 139.0 L 214.0 139.0 L 214.0 130.0 L 213.0 130.0 L 213.0 127.0 L 211.0 126.0 L 211.0 124.0 L 209.0 122.0 L 207.0 122.0 L 206.0 120.0 Z" fill="url(#steel)" fill-rule="evenodd" stroke="#0e141b" stroke-width="1.15" stroke-linejoin="round"/>
<path d="M 61.0 2.0 L 89.0 2.0 L 89.0 3.0 L 95.0 3.0 L 95.0 4.0 L 99.0 4.0 L 99.0 5.0 L 103.0 5.0 L 103.0 6.0 L 107.0 6.0 L 107.0 7.0 L 110.0 7.0 L 112.0 9.0 L 115.0 9.0 L 115.0 10.0 L 121.0 12.0 L 121.0 13.0 L 124.0 13.0 L 124.0 14.0 L 129.0 15.0 L 132.0 18.0 L 139.0 17.0 L 141.0 20.0 L 143.0 20.0 L 146.0 29.0 L 150.0 32.0 L 150.0 34.0 L 152.0 36.0 L 154.0 36.0 L 155.0 39.0 L 157.0 39.0 L 158.0 41.0 L 162.0 42.0 L 165.0 45.0 L 167.0 44.0 L 170.0 47.0 L 175.0 47.0 L 178.0 51.0 L 180.0 51.0 L 181.0 54.0 L 195.0 68.0 L 195.0 70.0 L 197.0 71.0 L 197.0 73.0 L 200.0 75.0 L 200.0 77.0 L 202.0 78.0 L 202.0 80.0 L 206.0 84.0 L 206.0 86.0 L 207.0 86.0 L 207.0 88.0 L 209.0 90.0 L 210.0 95.0 L 213.0 97.0 L 212.0 100.0 L 214.0 100.0 L 216.0 102.0 L 215.0 106.0 L 217.0 106.0 L 219.0 108.0 L 219.0 111.0 L 218.0 112.0 L 220.0 112.0 L 222.0 114.0 L 221.0 118.0 L 224.0 119.0 L 224.0 126.0 L 222.0 127.0 L 223.0 132.0 L 222.0 132.0 L 221.0 141.0 L 220.0 141.0 L 220.0 157.0 L 219.0 158.0 L 214.0 158.0 L 212.0 156.0 L 196.0 157.0 L 196.0 156.0 L 193.0 156.0 L 193.0 155.0 L 189.0 154.0 L 183.0 148.0 L 183.0 146.0 L 181.0 145.0 L 181.0 142.0 L 180.0 142.0 L 180.0 138.0 L 179.0 138.0 L 179.0 129.0 L 180.0 129.0 L 180.0 125.0 L 182.0 123.0 L 182.0 118.0 L 183.0 118.0 L 182.0 117.0 L 181.0 110.0 L 177.0 106.0 L 171.0 104.0 L 171.0 102.0 L 170.0 102.0 L 170.0 95.0 L 169.0 95.0 L 169.0 92.0 L 166.0 89.0 L 166.0 87.0 L 162.0 83.0 L 160.0 83.0 L 158.0 81.0 L 153.0 81.0 L 153.0 73.0 L 151.0 71.0 L 151.0 68.0 L 146.0 63.0 L 140.0 62.0 L 140.0 61.0 L 133.0 61.0 L 133.0 62.0 L 130.0 62.0 L 130.0 63.0 L 126.0 64.0 L 123.0 68.0 L 120.0 68.0 L 116.0 64.0 L 115.0 58.0 L 113.0 57.0 L 113.0 55.0 L 103.0 45.0 L 101.0 45.0 L 99.0 42.0 L 97.0 42.0 L 93.0 38.0 L 91.0 38.0 L 91.0 37.0 L 89.0 37.0 L 89.0 36.0 L 87.0 36.0 L 87.0 35.0 L 79.0 32.0 L 77.0 30.0 L 74.0 30.0 L 74.0 29.0 L 71.0 29.0 L 71.0 28.0 L 67.0 28.0 L 67.0 27.0 L 63.0 27.0 L 63.0 26.0 L 59.0 26.0 L 59.0 25.0 L 51.0 25.0 L 51.0 24.0 L 24.0 25.0 L 24.0 26.0 L 20.0 26.0 L 20.0 27.0 L 16.0 27.0 L 16.0 28.0 L 7.0 30.0 L 4.0 33.0 L 2.0 33.0 L 11.0 23.0 L 13.0 23.0 L 15.0 20.0 L 17.0 20.0 L 21.0 16.0 L 23.0 16.0 L 23.0 15.0 L 25.0 15.0 L 25.0 14.0 L 27.0 14.0 L 27.0 13.0 L 35.0 10.0 L 35.0 9.0 L 38.0 9.0 L 40.0 7.0 L 47.0 6.0 L 47.0 5.0 L 50.0 5.0 L 50.0 4.0 L 55.0 4.0 L 55.0 3.0 L 61.0 3.0 Z M 198.0 120.0 L 195.0 121.0 L 195.0 122.0 L 193.0 122.0 L 188.0 127.0 L 188.0 129.0 L 186.0 131.0 L 186.0 141.0 L 187.0 141.0 L 187.0 144.0 L 189.0 145.0 L 189.0 147.0 L 191.0 149.0 L 196.0 150.0 L 196.0 151.0 L 201.0 151.0 L 201.0 150.0 L 204.0 150.0 L 204.0 149.0 L 208.0 148.0 L 211.0 145.0 L 211.0 143.0 L 213.0 142.0 L 213.0 139.0 L 214.0 139.0 L 214.0 130.0 L 213.0 130.0 L 213.0 127.0 L 211.0 126.0 L 211.0 124.0 L 209.0 122.0 L 207.0 122.0 L 206.0 120.0 Z" fill="none" fill-rule="evenodd" stroke="rgba(255,255,255,0.23)" stroke-width="0.36" stroke-linejoin="round" transform="translate(0,-0.32)"/>
</svg>