<svg xmlns="http://www.w3.org/2000/svg" viewBox="0 0 127 160" width="127" height="160">
<defs><linearGradient id="steel" x1="0" y1="0" x2="0" y2="1"><stop offset="0" stop-color="#788696"/><stop offset="0.42" stop-color="#46515f"/><stop offset="1" stop-color="#202833"/></linearGradient></defs>
<path d="M 93.0 1.0 L 96.0 2.0 L 97.0 5.0 L 99.0 5.0 L 99.0 7.0 L 101.0 5.0 L 105.0 6.0 L 105.0 9.0 L 106.0 9.0 L 105.0 12.0 L 107.0 12.0 L 108.0 15.0 L 110.0 15.0 L 110.0 16.0 L 115.0 15.0 L 115.0 14.0 L 118.0 14.0 L 118.0 13.0 L 121.0 13.0 L 121.0 12.0 L 125.0 15.0 L 125.0 22.0 L 124.0 23.0 L 121.0 23.0 L 121.0 24.0 L 118.0 24.0 L 118.0 25.0 L 114.0 25.0 L 112.0 28.0 L 109.0 28.0 L 110.0 34.0 L 111.0 34.0 L 111.0 41.0 L 112.0 41.0 L 112.0 47.0 L 110.0 48.0 L 110.0 57.0 L 112.0 59.0 L 112.0 63.0 L 110.0 65.0 L 110.0 77.0 L 111.0 77.0 L 111.0 88.0 L 110.0 88.0 L 110.0 90.0 L 111.0 90.0 L 111.0 97.0 L 112.0 97.0 L 112.0 104.0 L 113.0 104.0 L 113.0 114.0 L 110.0 116.0 L 110.0 115.0 L 98.0 114.0 L 96.0 112.0 L 96.0 71.0 L 95.0 71.0 L 94.0 60.0 L 93.0 60.0 L 93.0 57.0 L 92.0 57.0 L 93.0 56.0 L 93.0 53.0 L 96.0 51.0 L 96.0 48.0 L 95.0 49.0 L 92.0 49.0 L 92.0 50.0 L 81.0 52.0 L 81.0 61.0 L 80.0 61.0 L 79.0 65.0 L 77.0 67.0 L 70.0 68.0 L 70.0 69.0 L 62.0 69.0 L 62.0 75.0 L 63.0 75.0 L 63.0 101.0 L 62.0 101.0 L 62.0 109.0 L 63.0 109.0 L 64.0 157.0 L 61.0 157.0 L 61.0 158.0 L 51.0 158.0 L 51.0 159.0 L 41.0 158.0 L 40.0 105.0 L 33.0 103.0 L 33.0 87.0 L 34.0 87.0 L 34.0 80.0 L 35.0 80.0 L 35.0 76.0 L 36.0 76.0 L 36.0 65.0 L 30.0 66.0 L 30.0 67.0 L 25.0 67.0 L 25.0 78.0 L 22.0 79.0 L 22.0 80.0 L 18.0 80.0 L 16.0 77.0 L 13.0 77.0 L 13.0 76.0 L 3.0 77.0 L 2.0 74.0 L 1.0 74.0 L 1.0 72.0 L 2.0 72.0 L 2.0 68.0 L 3.0 68.0 L 3.0 59.0 L 4.0 59.0 L 4.0 33.0 L 5.0 33.0 L 5.0 31.0 L 8.0 28.0 L 22.0 27.0 L 22.0 26.0 L 27.0 26.0 L 27.0 25.0 L 42.0 25.0 L 44.0 23.0 L 47.0 23.0 L 47.0 22.0 L 50.0 22.0 L 50.0 21.0 L 53.0 21.0 L 53.0 20.0 L 56.0 20.0 L 56.0 19.0 L 59.0 19.0 L 59.0 18.0 L 68.0 16.0 L 68.0 15.0 L 71.0 15.0 L 71.0 14.0 L 74.0 14.0 L 74.0 10.0 L 75.0 9.0 L 85.0 10.0 L 85.0 9.0 L 87.0 9.0 L 88.0 5.0 L 91.0 2.0 L 93.0 2.0 Z M 74.0 54.0 L 73.0 55.0 L 70.0 55.0 L 70.0 56.0 L 67.0 56.0 L 67.0 62.0 L 68.0 62.0 L 67.0 65.0 L 72.0 63.0 L 72.0 61.0 L 74.0 59.0 Z M 13.0 31.0 L 12.0 32.0 L 9.0 32.0 L 8.0 33.0 L 8.0 36.0 L 7.0 36.0 L 7.0 42.0 L 8.0 42.0 L 8.0 58.0 L 9.0 58.0 L 9.0 36.0 L 12.0 33.0 L 15.0 32.0 L 15.0 31.0 Z M 97.0 56.0 L 96.0 56.0 L 96.0 58.0 L 99.0 58.0 L 99.0 59.0 L 103.0 59.0 L 103.0 60.0 L 108.0 61.0 L 108.0 59.0 L 101.0 58.0 L 101.0 57.0 L 98.0 57.0 Z M 63.0 60.0 L 62.0 60.0 L 62.0 65.0 L 66.0 65.0 L 66.0 64.0 L 64.0 64.0 Z M 16.0 65.0 L 14.0 67.0 L 15.0 68.0 L 15.0 71.0 L 16.0 71.0 Z M 22.0 30.0 L 21.0 30.0 L 21.0 32.0 L 24.0 31.0 L 24.0 30.0 Z" fill="url(#steel)" fill-rule="evenodd" stroke="#0e141b" stroke-width="1.15" stroke-linejoin="round"/>
<path d="M 93.0 1.0 L 96.0 2.0 L 97.0 5.0 L 99.0 5.0 L 99.0 7.0 L 101.0 5.0 L 105.0 6.0 L 105.0 9.0 L 106.0 9.0 L 105.0 12.0 L 107.0 12.0 L 108.0 15.0 L 110.0 15.0 L 110.0 16.0 L 115.0 15.0 L 115.0 14.0 L 118.0 14.0 L 118.0 13.0 L 121.0 13.0 L 121.0 12.0 L 125.0 15.0 L 125.0 22.0 L 124.0 23.0 L 121.0 23.0 L 121.0 24.0 L 118.0 24.0 L 118.0 25.0 L 114.0 25.0 L 112.0 28.0 L 109.0 28.0 L 110.0 34.0 L 111.0 34.0 L 111.0 41.0 L 112.0 41.0 L 112.0 47.0 L 110.0 48.0 L 110.0 57.0 L 112.0 59.0 L 112.0 63.0 L 110.0 65.0 L 110.0 77.0 L 111.0 77.0 L 111.0 88.0 L 110.0 88.0 L 110.0 90.0 L 111.0 90.0 L 111.0 97.0 L 112.0 97.0 L 112.0 104.0 L 113.0 104.0 L 113.0 114.0 L 110.0 116.0 L 110.0 115.0 L 98.0 114.0 L 96.0 112.0 L 96.0 71.0 L 95.0 71.0 L 94.0 60.0 L 93.0 60.0 L 93.0 57.0 L 92.0 57.0 L 93.0 56.0 L 93.0 53.0 L 96.0 51.0 L 96.0 48.0 L 95.0 49.0 L 92.0 49.0 L 92.0 50.0 L 81.0 52.0 L 81.0 61.0 L 80.0 61.0 L 79.0 65.0 L 77.0 67.0 L 70.0 68.0 L 70.0 69.0 L 62.0 69.0 L 62.0 75.0 L 63.0 75.0 L 63.0 101.0 L 62.0 101.0 L 62.0 109.0 L 63.0 109.0 L 64.0 157.0 L 61.0 157.0 L 61.0 158.0 L 51.0 158.0 L 51.0 159.0 L 41.0 158.0 L 40.0 105.0 L 33.0 103.0 L 33.0 87.0 L 34.0 87.0 L 34.0 80.0 L 35.0 80.0 L 35.0 76.0 L 36.0 76.0 L 36.0 65.0 L 30.0 66.0 L 30.0 67.0 L 25.0 67.0 L 25.0 78.0 L 22.0 79.0 L 22.0 80.0 L 18.0 80.0 L 16.0 77.0 L 13.0 77.0 L 13.0 76.0 L 3.0 77.0 L 2.0 74.0 L 1.0 74.0 L 1.0 72.0 L 2.0 72.0 L 2.0 68.0 L 3.0 68.0 L 3.0 59.0 L 4.0 59.0 L 4.0 33.0 L 5.0 33.0 L 5.0 31.0 L 8.0 28.0 L 22.0 27.0 L 22.0 26.0 L 27.0 26.0 L 27.0 25.0 L 42.0 25.0 L 44.0 23.0 L 47.0 23.0 L 47.0 22.0 L 50.0 22.0 L 50.0 21.0 L 53.0 21.0 L 53.0 20.0 L 56.0 20.0 L 56.0 19.0 L 59.0 19.0 L 59.0 18.0 L 68.0 16.0 L 68.0 15.0 L 71.0 15.0 L 71.0 14.0 L 74.0 14.0 L 74.0 10.0 L 75.0 9.0 L 85.0 10.0 L 85.0 9.0 L 87.0 9.0 L 88.0 5.0 L 91.0 2.0 L 93.0 2.0 Z M 74.0 54.0 L 73.0 55.0 L 70.0 55.0 L 70.0 56.0 L 67.0 56.0 L 67.0 62.0 L 68.0 62.0 L 67.0 65.0 L 72.0 63.0 L 72.0 61.0 L 74.0 59.0 Z M 13.0 31.0 L 12.0 32.0 L 9.0 32.0 L 8.0 33.0 L 8.0 36.0 L 7.0 36.0 L 7.0 42.0 L 8.0 42.0 L 8.0 58.0 L 9.0 58.0 L 9.0 36.0 L 12.0 33.0 L 15.0 32.0 L 15.0 31.0 Z M 97.0 56.0 L 96.0 56.0 L 96.0 58.0 L 99.0 58.0 L 99.0 59.0 L 103.0 59.0 L 103.0 60.0 L 108.0 61.0 L 108.0 59.0 L 101.0 58.0 L 101.0 57.0 L 98.0 57.0 Z M 63.0 60.0 L 62.0 60.0 L 62.0 65.0 L 66.0 65.0 L 66.0 64.0 L 64.0 64.0 Z M 16.0 65.0 L 14.0 67.0 L 15.0 68.0 L 15.0 71.0 L 16.0 71.0 Z M 22.0 30.0 L 21.0 30.0 L 21.0 32.0 L 24.0 31.0 L 24.0 30.0 Z" fill="none" fill-rule="evenodd" stroke="rgba(255,255,255,0.23)" stroke-width="0.36" stroke-linejoin="round" transform="translate(0,-0.32)"/>
</svg>