<!-- Derived unchanged from packages/weapon-art/src/silhouettes.ts (mac10), traced from Valve inventory renders. See ../../../CREDITS.md. -->
<svg xmlns="http://www.w3.org/2000/svg" width="471" height="606" viewBox="-0.238 -0.298 0.471 0.606" preserveAspectRatio="xMidYMid meet">
  <path fill="#f0f3f5" d="M0.111 -0.298c-0.002 0.001 -0.014 0.013 -0.016 0.015c-0.000 0.001 -0.001 0.002 -0.002 0.003c-0.001 0.002 -0.001 0.002 -0.001 0.005l0.000 0.003l-0.001 0.001c-0.001 0.000 -0.002 0.001 -0.002 0.001c-0.000 0.000 -0.001 0.000 -0.002 0.000c-0.001 -0.000 -0.002 0.000 -0.002 0.001c-0.000 0.000 -0.002 0.001 -0.003 0.001c-0.001 0.000 -0.003 0.001 -0.003 0.001c-0.001 0.000 -0.002 0.001 -0.003 0.001c-0.001 0.000 -0.003 0.001 -0.003 0.001c-0.001 0.000 -0.002 0.001 -0.003 0.001c-0.001 0.000 -0.003 0.001 -0.005 0.002c-0.002 0.001 -0.004 0.001 -0.005 0.002c-0.004 0.001 -0.006 0.002 -0.008 0.003c-0.001 0.000 -0.002 0.001 -0.003 0.001c-0.001 -0.000 -0.002 0.000 -0.002 0.001c-0.001 0.000 -0.002 0.001 -0.002 0.001c-0.001 -0.000 -0.002 0.000 -0.002 0.001c-0.000 0.000 -0.002 0.001 -0.003 0.001c-0.001 0.000 -0.003 0.001 -0.003 0.001c-0.001 0.000 -0.002 0.001 -0.003 0.001c-0.001 0.000 -0.003 0.001 -0.003 0.001c-0.001 0.000 -0.002 0.001 -0.003 0.001c-0.001 0.000 -0.003 0.001 -0.005 0.002c-0.002 0.001 -0.004 0.001 -0.005 0.002c-0.004 0.001 -0.006 0.002 -0.008 0.003c-0.001 0.000 -0.002 0.001 -0.003 0.001c-0.000 -0.000 -0.001 0.000 -0.002 0.001c-0.001 0.000 -0.002 0.001 -0.002 0.001c-0.001 -0.000 -0.002 0.000 -0.002 0.001c-0.001 0.001 -0.002 0.001 -0.005 0.002c-0.001 0.000 -0.001 -0.000 -0.001 -0.001c-0.000 -0.000 -0.001 -0.002 -0.003 -0.003l-0.002 -0.003l-0.003 0.000c-0.002 -0.000 -0.003 0.000 -0.004 0.000c-0.000 0.000 -0.002 0.000 -0.004 0.001c-0.002 0.000 -0.004 0.000 -0.005 0.001c-0.000 0.000 -0.002 0.001 -0.003 0.001c-0.001 0.000 -0.002 0.001 -0.003 0.002l-0.002 0.002l0.000 0.005c0.000 0.006 -0.000 0.006 -0.002 0.006c-0.001 -0.000 -0.001 0.000 -0.002 0.001c-0.001 0.000 -0.002 0.001 -0.002 0.001c-0.001 -0.000 -0.002 0.000 -0.002 0.001c-0.000 0.000 -0.002 0.001 -0.003 0.001c-0.001 0.000 -0.003 0.001 -0.003 0.001c-0.001 0.000 -0.002 0.001 -0.003 0.001c-0.001 0.000 -0.003 0.001 -0.003 0.001c-0.001 0.000 -0.002 0.001 -0.003 0.001c-0.001 0.000 -0.003 0.001 -0.005 0.002c-0.002 0.001 -0.004 0.001 -0.005 0.002c-0.004 0.001 -0.006 0.002 -0.008 0.003c-0.001 0.000 -0.002 0.001 -0.003 0.001c-0.001 -0.000 -0.002 0.000 -0.002 0.001c-0.001 0.000 -0.002 0.001 -0.002 0.001c-0.001 -0.000 -0.002 0.000 -0.003 0.001c-0.001 0.001 -0.002 0.001 -0.005 0.001c-0.002 -0.000 -0.005 -0.000 -0.006 -0.001c-0.003 -0.001 -0.023 -0.001 -0.027 -0.000c-0.008 0.001 -0.010 0.002 -0.010 0.002c-0.000 0.000 -0.002 0.001 -0.004 0.001c-0.002 0.000 -0.005 0.001 -0.006 0.001c-0.004 0.001 -0.005 0.001 -0.008 0.002c-0.001 0.000 -0.004 0.001 -0.005 0.001c-0.001 0.000 -0.003 0.001 -0.005 0.001c-0.002 0.000 -0.004 0.001 -0.005 0.001c-0.001 0.000 -0.004 0.001 -0.006 0.001c-0.002 0.000 -0.004 0.001 -0.006 0.001c-0.003 0.000 -0.018 0.002 -0.022 0.002c-0.002 -0.000 -0.006 0.001 -0.009 0.002c-0.003 0.001 -0.008 0.005 -0.011 0.010c-0.002 0.003 -0.004 0.007 -0.004 0.008c0.000 0.000 -0.000 0.001 -0.001 0.002c-0.000 0.001 -0.001 0.003 -0.002 0.006c-0.001 0.005 -0.001 0.006 -0.001 0.014c0.000 0.005 0.000 0.010 0.000 0.012c0.000 0.002 0.000 0.011 0.000 0.022c0.000 0.014 0.000 0.020 0.000 0.022c-0.001 0.005 -0.001 0.005 -0.001 0.018c-0.001 0.028 -0.001 0.031 -0.003 0.033c-0.000 0.001 -0.001 0.001 -0.001 0.002c-0.000 0.001 -0.000 0.002 -0.001 0.003c-0.000 0.001 -0.001 0.003 -0.001 0.004c-0.000 0.001 -0.001 0.003 -0.001 0.003c-0.000 0.000 -0.000 0.001 -0.000 0.002c0.000 0.001 -0.000 0.002 -0.001 0.003c-0.001 0.003 -0.001 0.008 0.000 0.012c0.001 0.002 0.001 0.003 0.003 0.005c0.001 0.001 0.003 0.002 0.003 0.002c0.000 -0.000 0.001 0.000 0.001 0.001c0.001 0.001 0.005 0.000 0.015 -0.002c0.002 -0.000 0.004 -0.001 0.006 -0.001c0.002 -0.000 0.003 -0.000 0.005 0.000c0.001 0.000 0.004 0.001 0.005 0.001c0.002 0.000 0.004 0.001 0.005 0.001c0.001 0.000 0.002 0.001 0.003 0.001c0.001 -0.000 0.003 0.000 0.004 0.001c0.001 0.000 0.003 0.001 0.003 0.001c0.001 -0.000 0.003 0.001 0.003 0.002c0.000 0.002 0.002 0.005 0.004 0.007c0.003 0.003 0.006 0.003 0.012 0.002c0.001 -0.000 0.004 -0.001 0.006 -0.001c0.008 -0.002 0.008 -0.002 0.008 -0.009c0.000 -0.003 -0.000 -0.013 -0.000 -0.022c-0.000 -0.013 -0.000 -0.017 0.000 -0.018c0.000 -0.001 0.001 -0.001 0.003 -0.001c0.002 0.000 0.003 0.001 0.004 0.002c0.001 0.001 0.002 0.001 0.004 0.001c0.002 -0.000 0.007 -0.001 0.008 -0.002c0.000 -0.000 0.001 -0.000 0.002 -0.001c0.001 -0.000 0.002 -0.000 0.003 -0.001c0.001 -0.000 0.003 -0.001 0.004 -0.001c0.005 -0.001 0.008 -0.002 0.008 -0.002c0.000 -0.000 0.001 -0.000 0.002 -0.001c0.001 -0.000 0.002 -0.000 0.003 -0.001c0.002 -0.001 0.002 -0.000 0.004 0.006c0.003 0.008 0.003 0.021 0.000 0.031c-0.001 0.005 -0.001 0.006 -0.002 0.008c-0.000 0.001 -0.001 0.002 -0.001 0.003c0.000 0.001 -0.000 0.002 -0.001 0.002c-0.000 0.000 -0.001 0.002 -0.001 0.003c-0.000 0.001 -0.001 0.003 -0.001 0.004c-0.001 0.002 -0.002 0.009 -0.002 0.014c-0.000 0.002 -0.001 0.005 -0.001 0.008c-0.000 0.002 -0.001 0.009 -0.001 0.014c-0.001 0.009 -0.001 0.011 -0.001 0.032c0.000 0.017 0.000 0.022 0.001 0.023c0.000 0.000 0.001 0.001 0.002 0.002c0.001 0.001 0.002 0.001 0.004 0.000c0.004 -0.000 0.005 -0.000 0.009 0.000c0.002 0.000 0.004 0.001 0.005 0.001c0.001 0.000 0.002 0.001 0.002 0.001c0.000 0.001 0.001 0.001 0.002 0.001c0.001 0.000 0.001 0.000 0.001 0.003c0.000 0.005 0.001 0.043 0.001 0.049c0.000 0.011 0.001 0.024 0.001 0.045c0.000 0.012 0.000 0.025 0.001 0.029c0.001 0.029 0.001 0.039 0.001 0.048c0.000 0.006 0.000 0.013 0.000 0.016c0.000 0.003 0.000 0.007 -0.000 0.007c-0.000 0.001 0.000 0.005 0.001 0.006c0.001 0.001 0.001 0.001 0.003 0.000c0.001 -0.000 0.003 -0.000 0.004 0.001c0.002 0.001 0.003 0.001 0.006 0.001c0.002 -0.000 0.007 0.000 0.011 0.000c0.006 0.000 0.008 0.000 0.013 -0.000c0.003 -0.000 0.008 -0.001 0.012 -0.001c0.003 -0.000 0.007 -0.001 0.009 -0.001c0.002 -0.000 0.005 -0.000 0.007 -0.001c0.005 -0.000 0.009 -0.001 0.012 -0.002c0.001 -0.000 0.003 -0.001 0.005 -0.001c0.002 -0.000 0.003 -0.000 0.003 -0.000c0.001 -0.000 0.001 -0.001 0.000 -0.003c-0.000 -0.001 -0.001 -0.006 -0.001 -0.020c-0.001 -0.023 -0.001 -0.022 -0.001 -0.030c-0.000 -0.003 -0.000 -0.013 -0.001 -0.021c-0.000 -0.015 -0.001 -0.018 -0.001 -0.028c-0.000 -0.003 -0.000 -0.012 -0.001 -0.021c-0.000 -0.015 -0.000 -0.018 -0.001 -0.029c-0.000 -0.003 -0.000 -0.012 -0.001 -0.020c-0.000 -0.017 -0.001 -0.025 -0.001 -0.033c-0.000 -0.007 -0.000 -0.008 0.002 -0.009c0.002 -0.001 0.003 -0.002 0.002 -0.011c-0.000 -0.004 -0.000 -0.009 -0.000 -0.010c-0.000 -0.001 -0.000 -0.010 -0.001 -0.019c-0.000 -0.016 -0.001 -0.018 -0.001 -0.029c-0.000 -0.003 -0.000 -0.012 -0.001 -0.020c-0.000 -0.016 -0.001 -0.019 -0.001 -0.029l-0.000 -0.006l0.002 0.000c0.001 0.000 0.003 0.001 0.004 0.001c0.002 0.001 0.005 0.000 0.017 -0.001c0.004 -0.001 0.012 -0.001 0.018 -0.002c0.006 -0.001 0.009 -0.002 0.014 -0.005c0.002 -0.001 0.006 -0.006 0.008 -0.008c0.003 -0.005 0.006 -0.010 0.007 -0.015c0.000 -0.001 0.001 -0.003 0.001 -0.003c0.000 -0.001 0.000 -0.005 0.000 -0.014l-0.000 -0.013l0.001 -0.001c0.001 -0.001 0.002 -0.001 0.002 -0.001c0.000 -0.000 0.001 -0.000 0.002 -0.001c0.001 -0.000 0.002 -0.001 0.003 -0.001c0.001 -0.000 0.002 -0.000 0.003 -0.001c0.001 -0.000 0.003 -0.001 0.004 -0.001c0.003 -0.001 0.008 -0.002 0.010 -0.003c0.001 -0.000 0.003 -0.001 0.008 -0.002c0.004 -0.001 0.007 -0.002 0.009 -0.003c0.001 -0.000 0.002 -0.001 0.003 -0.001c0.001 -0.000 0.002 -0.000 0.008 -0.002c0.001 -0.000 0.002 -0.001 0.003 -0.001c0.000 -0.000 0.002 -0.000 0.003 -0.001c0.001 -0.000 0.002 -0.000 0.002 -0.000c0.000 0.000 0.000 0.003 0.001 0.006c0.000 0.005 0.000 0.006 -0.001 0.006c-0.001 0.001 -0.003 0.002 -0.007 0.006c-0.004 0.003 -0.005 0.006 -0.006 0.011c-0.001 0.005 0.000 0.011 0.002 0.015c0.001 0.002 0.002 0.004 0.003 0.005c0.001 0.001 0.001 0.002 0.002 0.005c0.000 0.002 0.001 0.005 0.001 0.006c0.002 0.008 0.003 0.013 0.003 0.018c0.000 0.003 0.001 0.009 0.001 0.013c0.000 0.004 0.001 0.011 0.001 0.016c0.000 0.005 0.001 0.014 0.001 0.020c0.001 0.017 0.001 0.053 -0.000 0.075c-0.000 0.008 -0.001 0.032 -0.001 0.034c0.000 0.002 0.001 0.005 0.001 0.007c0.001 0.006 0.004 0.008 0.008 0.009c0.001 0.000 0.003 0.001 0.004 0.001c0.001 0.000 0.003 0.001 0.005 0.001c0.002 0.000 0.004 0.001 0.005 0.001c0.001 0.000 0.004 0.001 0.006 0.001c0.002 0.000 0.004 0.001 0.005 0.001c0.001 0.000 0.003 0.001 0.005 0.001c0.002 0.000 0.004 0.001 0.006 0.001c0.002 0.000 0.004 0.001 0.005 0.001c0.001 -0.000 0.002 0.000 0.003 0.000c0.001 0.000 0.002 0.000 0.003 0.000c0.001 -0.000 0.002 -0.001 0.004 -0.002c0.001 -0.001 0.002 -0.002 0.002 -0.002c0.000 -0.000 0.000 -0.001 0.001 -0.003c0.001 -0.002 0.001 -0.003 0.001 -0.008c0.000 -0.006 -0.000 -0.013 -0.001 -0.016c-0.000 -0.001 -0.001 -0.003 -0.001 -0.005c-0.000 -0.002 -0.001 -0.004 -0.001 -0.006c-0.000 -0.002 -0.001 -0.004 -0.001 -0.005c0.000 -0.001 -0.000 -0.003 -0.001 -0.004c-0.000 -0.002 -0.001 -0.004 -0.001 -0.006c-0.000 -0.002 -0.001 -0.004 -0.001 -0.005c-0.000 -0.001 -0.001 -0.004 -0.001 -0.007c-0.000 -0.003 -0.001 -0.006 -0.001 -0.006c-0.000 -0.001 -0.000 -0.002 -0.000 -0.003c0.000 -0.001 -0.000 -0.004 -0.001 -0.007c-0.001 -0.005 -0.001 -0.010 -0.002 -0.017l-0.000 -0.003l0.001 0.000c0.001 0.000 0.001 0.000 0.002 -0.000c0.001 -0.001 0.001 -0.001 0.000 -0.003c-0.001 -0.005 -0.002 -0.014 -0.002 -0.029c-0.000 -0.004 -0.001 -0.011 -0.001 -0.015c-0.001 -0.009 -0.001 -0.032 0.000 -0.036c0.000 -0.001 0.001 -0.003 0.001 -0.004c0.000 -0.001 0.000 -0.002 0.001 -0.002c0.003 -0.002 0.005 -0.011 0.003 -0.018c-0.000 -0.002 -0.001 -0.004 -0.002 -0.005c-0.003 -0.006 -0.003 -0.005 -0.004 -0.017c-0.000 -0.010 -0.001 -0.014 -0.001 -0.016c-0.000 -0.001 0.000 -0.001 0.001 -0.001c0.001 -0.000 0.002 -0.001 0.001 -0.002c-0.000 -0.000 -0.001 -0.001 -0.001 -0.001c0.000 -0.001 0.003 -0.003 0.003 -0.003c0.001 -0.000 0.003 -0.003 0.004 -0.005c0.000 -0.001 0.001 -0.004 0.001 -0.006c0.000 -0.003 0.000 -0.005 0.001 -0.006c0.000 -0.001 0.000 -0.001 -0.000 -0.003c-0.000 -0.001 -0.001 -0.003 -0.002 -0.004c-0.003 -0.004 -0.003 -0.005 -0.003 -0.015c-0.000 -0.007 -0.001 -0.010 -0.001 -0.011c-0.001 -0.002 -0.003 -0.009 -0.004 -0.012c-0.000 -0.001 -0.001 -0.003 -0.001 -0.003c-0.001 -0.001 -0.002 -0.004 -0.002 -0.006c-0.000 -0.002 -0.000 -0.002 0.001 -0.003c0.001 -0.000 0.002 -0.001 0.004 -0.001c0.003 -0.001 0.005 -0.002 0.006 -0.003c0.001 -0.001 0.002 -0.001 0.002 -0.002c0.001 -0.000 0.002 -0.001 0.002 -0.002c0.001 -0.002 0.003 -0.003 0.004 -0.003c0.000 -0.000 0.002 -0.000 0.003 -0.001c0.001 -0.000 0.004 -0.001 0.006 -0.002c0.002 -0.001 0.004 -0.001 0.005 -0.002c0.001 -0.000 0.002 -0.001 0.003 -0.001c0.001 -0.000 0.003 -0.001 0.003 -0.001c0.001 -0.000 0.002 -0.001 0.002 -0.001c0.001 -0.000 0.003 -0.001 0.005 -0.001c0.002 -0.001 0.005 -0.002 0.006 -0.002c0.004 -0.001 0.006 -0.002 0.007 -0.003c0.000 -0.000 0.001 -0.001 0.001 -0.001c0.001 -0.001 0.003 -0.007 0.003 -0.012c0.000 -0.003 -0.001 -0.009 -0.003 -0.012c-0.002 -0.004 -0.005 -0.007 -0.008 -0.009c-0.002 -0.001 -0.005 -0.002 -0.008 -0.000c-0.001 0.000 -0.002 0.001 -0.003 0.001c-0.000 -0.000 -0.001 0.000 -0.002 0.001c-0.002 0.001 -0.005 0.002 -0.008 0.003c-0.002 0.001 -0.005 0.002 -0.008 0.003c-0.001 0.000 -0.002 0.001 -0.003 0.001c-0.000 -0.000 -0.002 0.000 -0.003 0.001c-0.002 0.001 -0.005 0.002 -0.008 0.003c-0.001 0.000 -0.002 0.001 -0.003 0.001c-0.001 0.000 -0.001 0.000 -0.002 -0.000c-0.001 -0.001 -0.004 -0.002 -0.005 -0.002c-0.000 0.000 -0.001 -0.000 -0.002 -0.000c-0.001 -0.001 -0.002 -0.001 -0.002 -0.002c0.000 -0.001 -0.001 -0.006 -0.001 -0.007c-0.000 -0.000 -0.001 -0.001 -0.002 -0.001c-0.001 -0.000 -0.003 -0.001 -0.004 -0.002c-0.001 -0.001 -0.003 -0.001 -0.003 -0.001c-0.002 -0.000 -0.003 -0.002 -0.002 -0.003c0.001 -0.001 0.002 -0.003 0.001 -0.009c-0.000 -0.003 -0.000 -0.005 -0.001 -0.006c-0.001 -0.002 -0.003 -0.005 -0.004 -0.005c-0.000 -0.000 -0.001 -0.000 -0.002 -0.001c-0.001 -0.001 -0.002 -0.001 -0.004 -0.001c-0.004 0.000 -0.005 0.001 -0.010 0.007c-0.002 0.002 -0.004 0.001 -0.002 -0.002c0.000 -0.001 0.001 -0.002 0.001 -0.003c0.000 -0.001 0.000 -0.002 -0.001 -0.003c-0.001 -0.001 -0.001 -0.001 -0.002 -0.001c-0.001 -0.000 -0.002 -0.000 -0.002 -0.000c-0.001 -0.001 -0.002 0.000 -0.003 0.003c-0.001 0.003 -0.001 0.003 -0.002 0.002c-0.000 -0.000 -0.001 -0.002 -0.001 -0.005c0.000 -0.004 -0.000 -0.005 -0.001 -0.007c-0.001 -0.002 -0.004 -0.004 -0.007 -0.005c-0.003 -0.001 -0.005 -0.001 -0.008 0.000zM0.118 -0.290c0.001 0.001 0.000 0.003 -0.000 0.005c-0.001 0.002 -0.003 0.004 -0.004 0.004c-0.001 -0.000 -0.001 -0.000 -0.001 -0.002c-0.000 -0.003 0.000 -0.004 0.002 -0.006c0.001 -0.001 0.002 -0.002 0.002 -0.002c0.001 -0.000 0.001 0.000 0.002 0.001zM0.150 -0.276c0.001 0.001 0.001 0.006 -0.001 0.006c-0.000 0.000 -0.001 -0.000 -0.002 -0.001c-0.001 -0.001 -0.002 -0.001 -0.002 -0.002c0.000 -0.002 0.002 -0.004 0.004 -0.004c0.000 -0.000 0.001 0.000 0.001 0.001zM-0.124 -0.198c0.001 0.001 -0.000 0.002 -0.002 0.002c-0.001 0.000 -0.002 0.000 -0.002 0.001c-0.000 0.000 -0.001 0.001 -0.003 0.001c-0.001 0.000 -0.003 0.001 -0.003 0.001c-0.001 0.000 -0.002 0.001 -0.003 0.001c-0.001 0.000 -0.003 0.001 -0.003 0.001c-0.001 0.000 -0.002 0.001 -0.003 0.001c-0.001 0.000 -0.003 0.001 -0.005 0.002c-0.002 0.001 -0.004 0.001 -0.005 0.002c-0.001 0.000 -0.002 0.001 -0.003 0.001c-0.000 0.000 -0.002 0.001 -0.003 0.001c-0.002 0.000 -0.003 0.000 -0.004 0.000c-0.001 -0.000 -0.002 -0.001 -0.002 -0.001c-0.000 -0.000 -0.001 -0.001 -0.001 -0.002c-0.002 -0.002 -0.001 -0.002 0.003 -0.003c0.002 -0.000 0.005 -0.001 0.006 -0.001c0.002 -0.000 0.005 -0.001 0.006 -0.001c0.002 -0.000 0.004 -0.001 0.004 -0.001c0.001 -0.000 0.002 -0.000 0.002 -0.000c0.001 -0.000 0.002 -0.000 0.003 -0.001c0.001 -0.000 0.004 -0.001 0.007 -0.002c0.003 -0.001 0.005 -0.001 0.006 -0.001c0.002 -0.001 0.004 -0.001 0.005 -0.000zM-0.180 -0.187c-0.000 0.000 -0.004 0.003 -0.009 0.006c-0.001 0.001 -0.002 0.002 -0.003 0.002c-0.001 0.001 -0.001 0.001 -0.002 0.001c-0.000 -0.000 -0.001 0.000 -0.002 0.001c-0.001 0.000 -0.002 0.001 -0.002 0.001c-0.001 -0.000 -0.004 0.004 -0.006 0.006c-0.001 0.002 -0.001 0.003 -0.002 0.006c-0.000 0.003 -0.001 0.040 -0.000 0.040c0.000 0.000 0.000 0.039 0.000 0.039c-0.000 0.000 -0.002 0.000 -0.004 0.000l-0.004 0.000l-0.000 -0.007c-0.000 -0.004 -0.000 -0.008 -0.001 -0.009c-0.000 -0.001 -0.001 -0.008 -0.001 -0.016c-0.000 -0.008 -0.000 -0.017 -0.001 -0.020c-0.000 -0.003 -0.000 -0.012 -0.001 -0.019c-0.000 -0.011 -0.000 -0.013 0.000 -0.014c0.000 -0.001 0.001 -0.002 0.001 -0.003c0.000 -0.002 0.003 -0.008 0.006 -0.011c0.001 -0.001 0.002 -0.002 0.002 -0.002c0.000 -0.000 0.001 -0.000 0.001 -0.001c0.001 -0.001 0.003 -0.001 0.016 -0.002c0.008 -0.000 0.010 -0.000 0.010 0.000zM0.041 -0.094c0.000 0.006 -0.001 0.011 -0.002 0.015c-0.001 0.001 -0.001 0.003 -0.001 0.003c0.000 0.000 -0.001 0.002 -0.002 0.003c-0.001 0.001 -0.002 0.003 -0.002 0.003c0.000 0.001 -0.004 0.006 -0.006 0.007c-0.003 0.002 -0.004 0.003 -0.006 0.004c-0.001 0.000 -0.003 0.001 -0.005 0.001c-0.001 0.000 -0.003 0.000 -0.003 0.001c-0.000 0.000 -0.002 0.000 -0.005 0.001c-0.002 0.000 -0.006 0.001 -0.007 0.001c-0.002 0.000 -0.004 0.001 -0.005 0.001l-0.002 0.000l-0.000 -0.003c-0.001 -0.005 -0.001 -0.026 -0.001 -0.027c0.001 -0.001 0.001 0.000 0.002 0.003c0.001 0.002 0.003 0.008 0.003 0.009c0.000 0.000 0.001 0.002 0.002 0.004c0.001 0.002 0.002 0.004 0.003 0.004c0.001 0.001 0.004 0.003 0.005 0.003c0.001 0.000 0.002 0.001 0.002 0.001c0.001 0.001 0.001 0.001 0.003 -0.000c0.001 -0.000 0.002 -0.001 0.002 -0.001c0.001 -0.001 0.000 -0.002 -0.001 -0.005c-0.001 -0.002 -0.002 -0.004 -0.002 -0.004c0.000 -0.001 -0.000 -0.002 -0.001 -0.003c-0.001 -0.004 -0.002 -0.014 -0.001 -0.016c0.000 -0.001 0.001 -0.001 0.008 -0.003c0.001 -0.000 0.003 -0.001 0.004 -0.001c0.001 -0.000 0.002 -0.001 0.003 -0.001c0.001 -0.000 0.002 -0.000 0.002 -0.000c0.001 -0.000 0.005 -0.002 0.008 -0.002c0.001 -0.000 0.002 -0.000 0.002 -0.000l0.001 0.000l0.000 0.005zM0.126 -0.093c0.000 0.000 0.001 0.001 0.002 0.001c0.001 -0.000 0.002 0.000 0.003 0.001c0.001 0.000 0.002 0.001 0.002 0.001c0.001 -0.000 0.007 0.002 0.009 0.003c0.001 0.000 0.002 0.001 0.002 0.001c0.001 -0.000 0.002 0.000 0.002 0.001c0.001 0.000 0.002 0.001 0.002 0.001c0.001 -0.000 0.007 0.002 0.009 0.003c0.001 0.000 0.002 0.001 0.002 0.001c0.001 -0.000 0.002 0.000 0.002 0.001c0.001 0.000 0.002 0.001 0.002 0.001c0.001 -0.000 0.005 0.001 0.006 0.002c0.001 0.001 0.001 0.002 0.002 0.005c0.000 0.001 0.000 0.003 0.000 0.003c0.000 0.001 -0.000 0.001 -0.001 0.001c-0.001 -0.000 -0.002 -0.000 -0.003 -0.001c-0.005 -0.002 -0.008 -0.003 -0.013 -0.004c-0.001 -0.000 -0.002 -0.001 -0.003 -0.001c-0.000 -0.000 -0.001 -0.001 -0.002 -0.001c-0.000 -0.000 -0.002 -0.000 -0.003 -0.001c-0.001 -0.000 -0.003 -0.001 -0.004 -0.001c-0.001 -0.000 -0.003 -0.001 -0.003 -0.001c-0.001 -0.000 -0.001 -0.001 -0.002 -0.001c-0.000 -0.000 -0.002 -0.000 -0.003 -0.001c-0.005 -0.002 -0.007 -0.003 -0.010 -0.003c-0.002 -0.000 -0.002 -0.000 -0.003 -0.001c-0.001 -0.001 -0.001 -0.002 -0.001 -0.005c-0.000 -0.002 -0.000 -0.004 0.000 -0.004c0.000 -0.001 0.001 -0.001 0.003 -0.000zM-0.180 -0.061c0.000 0.000 0.000 0.005 0.001 0.015c0.000 0.012 -0.000 0.015 -0.001 0.015c-0.001 0.000 -0.005 -0.004 -0.006 -0.006c-0.002 -0.004 -0.003 -0.007 -0.003 -0.012c0.000 -0.005 0.001 -0.008 0.004 -0.010c0.002 -0.002 0.002 -0.002 0.003 -0.002c0.001 -0.000 0.002 0.000 0.002 0.001z"/>
</svg>
