<!-- Derived unchanged from packages/weapon-art/src/silhouettes.ts (sg552), traced from Valve inventory renders. See ../../../CREDITS.md. -->
<svg xmlns="http://www.w3.org/2000/svg" width="1041" height="504" viewBox="-0.515 -0.263 1.041 0.504" preserveAspectRatio="xMidYMid meet">
  <path fill="#f0f3f5" d="M0.248 -0.250c-0.001 0.000 -0.003 0.001 -0.004 0.001c-0.001 0.000 -0.003 0.001 -0.003 0.001c-0.002 0.000 -0.007 0.003 -0.009 0.004c-0.001 0.001 -0.003 0.002 -0.004 0.002c-0.001 -0.000 -0.002 0.000 -0.003 0.001c-0.001 0.001 -0.003 0.001 -0.004 0.001c-0.002 -0.000 -0.007 0.002 -0.009 0.004c-0.001 0.001 -0.002 0.002 -0.003 0.003c-0.001 0.002 -0.002 0.002 -0.002 0.007c0.000 0.007 0.000 0.007 0.007 0.006c0.003 -0.000 0.003 -0.000 0.003 0.001c0.001 0.002 0.002 0.003 0.004 0.003c0.002 -0.000 0.003 0.001 0.003 0.001c-0.000 0.000 -0.004 0.001 -0.009 0.003c-0.003 0.001 -0.006 0.002 -0.008 0.004c-0.001 0.001 -0.003 0.002 -0.005 0.003c-0.002 0.001 -0.004 0.001 -0.005 0.002c-0.001 0.000 -0.003 0.001 -0.004 0.001c-0.005 0.001 -0.008 0.002 -0.010 0.003c-0.004 0.002 -0.008 0.003 -0.010 0.003c-0.002 0.000 -0.005 0.001 -0.010 0.003c-0.001 0.000 -0.003 0.001 -0.004 0.001c-0.001 0.000 -0.002 0.001 -0.003 0.001c-0.001 0.000 -0.002 0.001 -0.003 0.001c-0.001 0.000 -0.004 0.001 -0.005 0.001c-0.005 0.002 -0.008 0.003 -0.011 0.003c-0.002 0.000 -0.005 0.001 -0.010 0.003c-0.001 0.000 -0.003 0.001 -0.004 0.001c-0.001 0.000 -0.002 0.001 -0.003 0.001c-0.001 0.000 -0.002 0.001 -0.003 0.001c-0.001 0.000 -0.004 0.001 -0.005 0.001c-0.006 0.002 -0.008 0.003 -0.010 0.003c-0.002 0.000 -0.005 0.001 -0.010 0.003c-0.004 0.001 -0.008 0.002 -0.011 0.003c-0.003 0.001 -0.007 0.002 -0.011 0.003c-0.001 0.000 -0.003 0.001 -0.005 0.001c-0.002 0.000 -0.005 0.001 -0.009 0.003c-0.003 0.001 -0.008 0.003 -0.012 0.003c-0.003 0.001 -0.007 0.002 -0.011 0.003c-0.001 0.000 -0.003 0.001 -0.005 0.001c-0.002 0.000 -0.007 0.002 -0.010 0.003c-0.002 0.001 -0.008 0.003 -0.011 0.003c-0.001 0.000 -0.003 0.001 -0.004 0.001c-0.001 0.000 -0.003 0.001 -0.005 0.002c-0.002 0.001 -0.004 0.001 -0.005 0.002c-0.001 0.000 -0.003 0.001 -0.004 0.001c-0.005 0.001 -0.008 0.002 -0.010 0.003c-0.004 0.002 -0.008 0.003 -0.010 0.003c-0.002 0.000 -0.005 0.001 -0.010 0.003c-0.001 0.000 -0.003 0.001 -0.004 0.001c-0.001 0.000 -0.002 0.001 -0.003 0.001c-0.001 0.000 -0.002 0.001 -0.003 0.001c-0.001 0.000 -0.004 0.001 -0.005 0.001c-0.005 0.002 -0.008 0.003 -0.011 0.003c-0.002 0.000 -0.004 0.001 -0.011 0.003c-0.003 0.001 -0.004 0.001 -0.005 0.000c-0.003 -0.001 -0.005 -0.001 -0.009 -0.002c-0.002 -0.000 -0.003 -0.000 -0.006 0.001c-0.003 0.001 -0.003 0.001 -0.006 0.000c-0.003 -0.001 -0.007 -0.000 -0.009 0.001c-0.002 0.001 -0.004 0.001 -0.005 -0.002c-0.002 -0.003 -0.007 -0.005 -0.011 -0.003c-0.002 0.001 -0.004 0.001 -0.005 0.001c-0.006 0.001 -0.004 -0.003 0.003 -0.006c0.002 -0.001 0.011 -0.010 0.011 -0.011c0.000 -0.000 0.001 -0.002 0.002 -0.003c0.001 -0.001 0.002 -0.003 0.002 -0.005c0.001 -0.002 0.001 -0.003 0.003 -0.008c0.001 -0.003 0.001 -0.004 0.001 -0.013l0.000 -0.010l-0.002 -0.004c-0.001 -0.002 -0.003 -0.005 -0.004 -0.006c-0.002 -0.002 -0.002 -0.003 -0.003 -0.005c-0.000 -0.001 -0.001 -0.003 -0.001 -0.003c-0.001 -0.001 -0.001 -0.002 -0.001 -0.006c-0.000 -0.005 -0.000 -0.005 -0.002 -0.006c-0.001 -0.001 -0.002 -0.001 -0.006 -0.001c-0.007 0.000 -0.009 0.001 -0.009 0.006c-0.000 0.005 -0.001 0.010 -0.002 0.010c-0.004 0.002 -0.006 0.003 -0.007 0.003c-0.001 -0.000 -0.002 0.000 -0.002 0.001c-0.001 0.000 -0.002 0.001 -0.003 0.001c-0.005 0.001 -0.012 0.004 -0.013 0.005c-0.001 0.002 -0.004 0.003 -0.006 0.003c-0.002 0.000 -0.006 0.004 -0.011 0.010c-0.001 0.002 -0.003 0.003 -0.004 0.004c-0.002 0.001 -0.007 0.002 -0.008 0.003c-0.001 0.001 -0.005 0.002 -0.006 0.002c-0.001 -0.000 -0.001 -0.001 -0.000 -0.002c0.000 -0.001 0.000 -0.004 0.001 -0.006l0.000 -0.004l-0.002 -0.002c-0.001 -0.001 -0.003 -0.002 -0.005 -0.003c-0.003 -0.001 -0.004 -0.001 -0.010 -0.001c-0.007 0.000 -0.009 0.001 -0.012 0.003c-0.003 0.002 -0.004 0.003 -0.003 0.007c0.000 0.003 0.000 0.004 0.001 0.005c0.001 0.001 0.001 0.005 0.000 0.006c-0.001 0.001 -0.001 0.001 -0.002 0.000c-0.002 -0.001 -0.004 -0.001 -0.013 -0.001c-0.006 -0.000 -0.008 -0.000 -0.010 0.001c-0.003 0.001 -0.003 0.001 -0.003 -0.000c-0.000 -0.001 -0.001 -0.002 -0.001 -0.002c0.000 -0.001 -0.002 -0.004 -0.004 -0.005c-0.002 -0.001 -0.005 0.000 -0.007 0.003c-0.001 0.001 -0.002 0.003 -0.002 0.003c0.000 0.001 -0.000 0.003 -0.001 0.004c-0.001 0.002 -0.001 0.005 -0.001 0.006c-0.001 0.006 -0.004 0.009 -0.009 0.009c-0.002 -0.000 -0.003 0.000 -0.003 0.001c-0.001 0.001 -0.001 0.002 -0.001 0.003c0.000 0.001 -0.001 0.002 -0.001 0.002c-0.001 0.001 -0.001 0.001 -0.001 0.005c0.000 0.004 0.001 0.007 0.002 0.013c0.000 0.002 0.001 0.004 0.001 0.004c0.000 0.002 0.004 0.009 0.007 0.011c0.001 0.001 0.004 0.003 0.005 0.005c0.003 0.002 0.004 0.002 0.007 0.002c0.003 -0.000 0.005 -0.000 0.007 -0.001c0.002 -0.001 0.004 -0.002 0.006 -0.002c0.002 -0.001 0.007 -0.000 0.009 0.000c0.001 0.000 0.004 0.001 0.006 0.002c0.002 0.001 0.005 0.001 0.005 0.002c0.000 0.000 0.001 0.001 0.000 0.003c-0.000 0.002 0.001 0.006 0.002 0.008c0.001 0.001 0.001 0.002 0.000 0.002c-0.000 -0.000 -0.002 0.001 -0.004 0.002c-0.002 0.001 -0.004 0.002 -0.004 0.002c-0.002 -0.000 -0.003 0.000 -0.005 0.002c-0.002 0.001 -0.002 0.001 -0.004 0.001c-0.001 -0.000 -0.003 0.000 -0.005 0.001c-0.002 0.001 -0.004 0.002 -0.006 0.002c-0.002 -0.000 -0.003 0.000 -0.004 0.001c-0.001 0.001 -0.002 0.001 -0.004 0.001c-0.002 -0.000 -0.003 0.000 -0.004 0.001c-0.001 0.001 -0.003 0.001 -0.005 0.002c-0.002 0.000 -0.004 0.001 -0.005 0.002c-0.001 0.001 -0.003 0.001 -0.005 0.001c-0.002 0.000 -0.004 0.001 -0.004 0.001c-0.001 0.001 -0.002 0.001 -0.004 0.001c-0.001 -0.000 -0.004 0.000 -0.005 0.001c-0.002 0.001 -0.003 0.001 -0.004 0.001c-0.001 -0.000 -0.007 0.003 -0.008 0.004l-0.001 0.001l0.001 0.002c0.001 0.001 0.001 0.003 0.001 0.003c0.000 0.001 0.000 0.001 0.001 0.002c0.000 0.000 0.001 0.001 0.001 0.001c0.000 0.001 -0.001 0.002 -0.003 0.002c-0.001 -0.000 -0.004 0.002 -0.005 0.004c-0.000 0.001 -0.002 0.003 -0.003 0.004c-0.002 0.002 -0.003 0.004 -0.004 0.005c-0.003 0.006 -0.008 0.013 -0.009 0.013c-0.000 -0.000 -0.002 0.000 -0.003 0.001c-0.002 0.001 -0.008 0.001 -0.009 0.001c-0.001 -0.000 -0.002 -0.001 -0.004 -0.001c-0.003 -0.000 -0.006 0.001 -0.009 0.004c-0.001 0.001 -0.003 0.002 -0.003 0.002c-0.001 0.000 -0.003 0.001 -0.004 0.001c-0.006 0.002 -0.010 0.003 -0.011 0.003c-0.001 -0.000 -0.002 0.000 -0.004 0.001c-0.004 0.002 -0.010 0.003 -0.011 0.003c-0.001 -0.000 -0.002 0.000 -0.004 0.001c-0.004 0.002 -0.010 0.003 -0.011 0.003c-0.001 -0.000 -0.002 0.000 -0.004 0.001c-0.004 0.002 -0.010 0.003 -0.011 0.003c-0.001 -0.000 -0.002 0.000 -0.003 0.001c-0.002 0.001 -0.006 0.002 -0.011 0.003c-0.002 0.000 -0.003 0.001 -0.004 0.001c-0.001 0.001 -0.006 0.002 -0.011 0.003c-0.002 0.000 -0.003 0.001 -0.004 0.001c-0.001 0.001 -0.006 0.002 -0.011 0.003c-0.002 0.000 -0.004 0.001 -0.004 0.001c-0.002 0.001 -0.004 0.001 -0.005 -0.000c-0.001 -0.000 -0.002 -0.001 -0.003 -0.001c-0.001 -0.000 -0.003 -0.001 -0.003 -0.001c-0.001 -0.001 -0.009 0.001 -0.012 0.003c-0.002 0.001 -0.003 0.002 -0.004 0.002c-0.002 0.001 -0.005 0.003 -0.008 0.006c-0.002 0.002 -0.003 0.004 -0.003 0.005c0.000 0.000 -0.001 0.002 -0.002 0.004c-0.001 0.002 -0.002 0.004 -0.002 0.007c-0.000 0.002 -0.000 0.006 -0.000 0.009c0.000 0.003 -0.000 0.005 -0.001 0.006c-0.001 0.002 -0.001 0.003 -0.000 0.004c0.001 0.001 0.000 0.004 -0.000 0.007c-0.000 0.001 -0.000 0.002 0.001 0.003c0.001 0.001 0.001 0.002 0.001 0.003c-0.000 0.002 -0.000 0.003 -0.000 0.011c0.000 0.003 0.001 0.006 0.001 0.007c0.001 0.002 0.001 0.003 0.000 0.005c-0.000 0.001 -0.000 0.002 0.001 0.004c0.001 0.002 0.001 0.003 0.001 0.006c0.000 0.002 0.000 0.004 0.001 0.006c0.001 0.002 0.001 0.003 0.001 0.005c-0.000 0.002 -0.000 0.003 0.001 0.005c0.001 0.003 0.002 0.004 0.001 0.005c-0.000 0.002 0.000 0.003 0.001 0.005c0.001 0.002 0.002 0.003 0.001 0.006c-0.000 0.003 0.000 0.004 0.001 0.004c0.001 0.001 0.002 0.004 0.002 0.006c-0.000 0.002 0.000 0.002 0.002 0.004c0.002 0.002 0.002 0.002 0.002 0.005c0.000 0.003 0.000 0.003 0.002 0.005c0.002 0.002 0.002 0.003 0.002 0.006c0.000 0.003 0.001 0.004 0.002 0.005c0.001 0.002 0.002 0.003 0.002 0.005c0.000 0.003 0.001 0.003 0.003 0.006c0.005 0.005 0.004 0.005 0.009 0.006c0.006 0.001 0.007 0.000 0.012 -0.001c0.004 -0.001 0.007 -0.004 0.008 -0.006c0.000 -0.001 0.001 -0.003 0.001 -0.004c0.001 -0.002 0.002 -0.010 0.003 -0.017c0.000 -0.002 0.001 -0.004 0.001 -0.005c0.000 -0.001 0.001 -0.002 0.001 -0.002c0.000 -0.001 0.003 -0.006 0.003 -0.007c0.000 -0.000 0.001 -0.001 0.001 -0.002c0.000 -0.001 0.001 -0.002 0.002 -0.004c0.001 -0.001 0.002 -0.003 0.002 -0.004c0.000 -0.001 0.001 -0.002 0.001 -0.002c0.000 -0.000 0.001 -0.002 0.002 -0.004l0.002 -0.003l0.002 0.000c0.001 0.000 0.003 0.000 0.005 0.000c0.001 0.000 0.003 0.000 0.004 0.001c0.003 0.001 0.005 -0.000 0.005 -0.002c0.000 -0.001 0.001 -0.002 0.001 -0.002c0.000 -0.000 0.003 -0.004 0.006 -0.008c0.002 -0.003 0.008 -0.012 0.010 -0.013c0.000 -0.000 0.001 -0.002 0.002 -0.003c0.002 -0.003 0.005 -0.007 0.006 -0.008c0.001 -0.001 0.001 -0.001 0.001 0.000c0.000 0.001 0.001 0.002 0.002 0.003c0.001 0.001 0.002 0.001 0.005 0.001c0.004 -0.000 0.006 -0.001 0.007 -0.002c0.000 -0.000 0.000 -0.002 0.000 -0.003c0.000 -0.001 0.000 -0.003 0.000 -0.003c0.000 -0.000 0.002 -0.001 0.003 -0.001c0.002 -0.000 0.004 -0.001 0.006 -0.001c0.001 -0.000 0.004 -0.001 0.006 -0.001c0.002 -0.000 0.003 -0.001 0.004 -0.002c0.001 -0.001 0.001 -0.002 0.001 -0.005c0.000 -0.002 -0.000 -0.005 -0.001 -0.007c-0.001 -0.004 -0.001 -0.007 -0.000 -0.007c0.001 -0.001 0.007 -0.003 0.009 -0.003c0.001 -0.000 0.003 -0.000 0.004 -0.001c0.002 -0.001 0.004 -0.001 0.005 -0.001c0.003 -0.000 0.010 -0.006 0.010 -0.009c0.000 -0.002 0.001 -0.002 0.003 -0.001c0.002 0.001 0.005 0.002 0.007 0.002c0.001 -0.000 0.002 -0.000 0.002 0.001c0.000 0.000 0.002 0.001 0.002 0.001c0.001 -0.000 0.002 0.001 0.005 0.003c0.006 0.007 0.007 0.010 0.008 0.021c0.000 0.006 0.000 0.008 -0.001 0.011c-0.000 0.002 -0.001 0.004 -0.001 0.005c0.000 0.001 -0.000 0.002 -0.001 0.003c-0.001 0.001 -0.001 0.002 -0.001 0.003c0.000 0.001 -0.000 0.002 -0.001 0.002c-0.001 0.001 -0.001 0.002 -0.001 0.002c0.000 0.000 -0.000 0.001 -0.001 0.002c-0.001 0.001 -0.001 0.002 -0.001 0.002c0.000 0.000 -0.000 0.001 -0.001 0.002c-0.001 0.001 -0.001 0.002 -0.001 0.002c0.000 0.000 -0.002 0.006 -0.005 0.012c-0.003 0.006 -0.006 0.011 -0.006 0.012c-0.000 0.001 -0.001 0.002 -0.001 0.002c-0.000 0.000 -0.001 0.001 -0.001 0.002c-0.000 0.001 -0.001 0.002 -0.001 0.002c-0.001 0.001 -0.007 0.014 -0.008 0.017c-0.004 0.009 -0.004 0.009 -0.003 0.010c0.001 0.001 0.003 0.003 0.008 0.005c0.004 0.002 0.008 0.004 0.008 0.004c0.001 -0.000 0.002 0.000 0.003 0.001c0.003 0.001 0.007 0.003 0.010 0.003c0.001 0.000 0.003 0.001 0.003 0.001c0.000 0.000 0.002 0.001 0.004 0.001c0.002 0.000 0.004 0.001 0.006 0.001c0.001 0.001 0.006 0.001 0.013 0.001c0.010 0.000 0.010 0.000 0.012 -0.001c0.001 -0.001 0.001 -0.002 0.002 -0.002c0.000 -0.001 0.001 -0.001 0.001 -0.001c0.001 -0.000 0.003 -0.003 0.002 -0.004c-0.000 -0.000 -0.001 -0.002 -0.001 -0.003c0.000 -0.001 -0.001 -0.003 -0.001 -0.005c-0.001 -0.002 -0.001 -0.003 -0.001 -0.006c0.000 -0.002 0.001 -0.004 0.001 -0.005c0.000 -0.001 0.001 -0.002 0.001 -0.003c0.000 -0.003 0.004 -0.013 0.005 -0.016c0.001 -0.001 0.001 -0.003 0.001 -0.003c0.000 -0.001 0.000 -0.002 0.001 -0.003c0.000 -0.001 0.001 -0.003 0.001 -0.004c0.000 -0.001 0.001 -0.003 0.001 -0.004c0.000 -0.001 0.001 -0.002 0.001 -0.003c0.000 -0.001 0.001 -0.003 0.001 -0.005c0.001 -0.002 0.002 -0.006 0.003 -0.009c0.001 -0.004 0.002 -0.007 0.003 -0.009c0.001 -0.001 0.001 -0.003 0.001 -0.004c0.000 -0.001 0.001 -0.002 0.002 -0.003c0.002 -0.002 0.006 -0.004 0.007 -0.004c0.000 -0.000 0.002 -0.000 0.003 -0.001c0.005 -0.002 0.010 -0.003 0.014 -0.004c0.002 -0.000 0.005 -0.001 0.006 -0.001c0.001 -0.000 0.003 -0.001 0.003 -0.001c0.000 0.000 0.002 -0.000 0.003 -0.001c0.002 -0.000 0.004 -0.001 0.006 -0.002c0.002 -0.000 0.004 -0.001 0.004 -0.001c0.000 -0.000 0.001 -0.001 0.003 -0.001c0.001 -0.000 0.003 -0.000 0.005 -0.001c0.002 -0.001 0.003 -0.001 0.005 -0.001c0.001 0.000 0.003 0.001 0.003 0.001c0.000 0.000 0.001 0.002 0.001 0.004c0.000 0.004 0.001 0.012 0.002 0.017c0.000 0.002 0.001 0.007 0.001 0.010c0.000 0.003 0.001 0.007 0.001 0.008c0.000 0.001 0.001 0.004 0.001 0.006c0.001 0.007 0.003 0.016 0.003 0.019c0.000 0.001 0.001 0.003 0.001 0.004c0.000 0.001 0.000 0.003 0.000 0.004c0.000 0.001 0.001 0.003 0.001 0.005c0.000 0.002 0.001 0.004 0.001 0.005c0.000 0.001 0.001 0.004 0.002 0.007c0.002 0.010 0.003 0.013 0.003 0.014c0.000 0.000 0.001 0.002 0.001 0.004c0.000 0.001 0.001 0.003 0.001 0.004c0.000 0.001 0.001 0.003 0.001 0.004c0.000 0.002 0.002 0.008 0.004 0.013c0.000 0.001 0.001 0.003 0.001 0.004c0.000 0.001 0.001 0.003 0.001 0.003c0.000 0.001 0.001 0.002 0.001 0.003c0.000 0.001 0.001 0.004 0.002 0.006c0.002 0.006 0.004 0.014 0.005 0.018c0.000 0.002 0.001 0.004 0.001 0.004c0.000 0.000 0.002 0.001 0.004 0.001c0.014 0.001 0.015 0.001 0.017 0.000c0.002 -0.000 0.003 -0.001 0.004 -0.001c0.000 -0.000 0.001 -0.001 0.002 -0.001c0.001 -0.000 0.002 -0.001 0.003 -0.001c0.001 -0.001 0.002 -0.001 0.003 -0.001c0.002 -0.000 0.005 -0.001 0.007 -0.003c0.000 -0.000 0.002 -0.001 0.002 -0.001c0.001 -0.000 0.002 -0.001 0.002 -0.002c0.000 -0.001 0.001 -0.002 0.004 -0.003c0.003 -0.002 0.007 -0.003 0.008 -0.005c0.000 -0.000 0.005 -0.003 0.009 -0.005c0.001 -0.000 0.002 -0.001 0.002 -0.001c0.000 -0.000 0.003 -0.001 0.005 -0.002c0.002 -0.001 0.004 -0.002 0.004 -0.002c0.000 -0.000 0.001 -0.000 0.002 -0.000c0.003 -0.000 0.004 -0.001 0.007 -0.004c0.003 -0.003 0.003 -0.004 0.002 -0.006c-0.001 -0.002 -0.003 -0.009 -0.003 -0.010c0.000 -0.001 -0.001 -0.004 -0.002 -0.007c-0.001 -0.003 -0.002 -0.007 -0.002 -0.007c0.000 -0.001 -0.002 -0.008 -0.004 -0.012c-0.000 -0.001 -0.001 -0.002 -0.001 -0.003c0.000 -0.000 -0.000 -0.002 -0.001 -0.003c-0.001 -0.001 -0.001 -0.003 -0.001 -0.004c0.000 -0.001 -0.000 -0.003 -0.001 -0.005c-0.001 -0.002 -0.001 -0.003 -0.001 -0.004c0.000 -0.001 -0.000 -0.003 -0.001 -0.004c-0.001 -0.002 -0.001 -0.003 -0.001 -0.004c0.000 -0.001 -0.000 -0.003 -0.001 -0.004c-0.001 -0.002 -0.001 -0.003 -0.001 -0.004c0.000 -0.001 -0.000 -0.002 -0.001 -0.003c-0.001 -0.002 -0.003 -0.012 -0.004 -0.018c-0.000 -0.002 -0.001 -0.006 -0.001 -0.007c-0.001 -0.007 -0.002 -0.013 -0.003 -0.017c-0.000 -0.003 -0.001 -0.006 -0.001 -0.008c-0.001 -0.005 -0.001 -0.013 -0.002 -0.023l-0.000 -0.007l0.002 -0.001c0.001 -0.000 0.002 -0.001 0.002 -0.001c0.000 -0.000 0.001 -0.001 0.002 -0.001c0.002 -0.001 0.003 -0.001 0.004 -0.003c0.001 -0.002 0.001 -0.002 0.000 -0.004c-0.000 -0.001 -0.001 -0.002 -0.002 -0.002c-0.001 -0.000 -0.002 -0.001 -0.003 -0.002c-0.002 -0.001 -0.002 -0.001 -0.003 -0.017l-0.000 -0.006l0.002 -0.001c0.001 -0.001 0.003 -0.001 0.003 -0.001c0.000 0.000 0.001 -0.000 0.002 -0.001c0.001 -0.001 0.002 -0.001 0.002 -0.002c0.001 -0.000 0.003 -0.002 0.008 -0.006c0.001 -0.001 0.002 -0.002 0.003 -0.002c0.001 -0.000 0.005 -0.004 0.009 -0.008c0.002 -0.002 0.003 -0.004 0.004 -0.006c0.000 -0.002 0.001 -0.003 0.002 -0.004c0.002 -0.002 0.011 -0.004 0.018 -0.004c0.003 -0.000 0.006 -0.000 0.007 -0.001c0.002 -0.000 0.004 -0.001 0.005 -0.001c0.001 -0.000 0.004 -0.001 0.005 -0.002l0.003 -0.001l0.003 0.002c0.004 0.002 0.009 0.003 0.012 0.004c0.002 0.000 0.004 0.001 0.005 0.001c0.003 0.001 0.002 0.001 0.016 -0.003c0.005 -0.001 0.006 -0.002 0.008 -0.003c0.001 -0.001 0.001 -0.001 0.003 -0.000c0.001 0.000 0.002 0.000 0.005 -0.000c0.002 -0.001 0.004 -0.001 0.004 -0.002c0.001 -0.001 0.002 -0.001 0.003 -0.001c0.003 0.000 0.005 -0.000 0.008 -0.002c0.002 -0.001 0.002 -0.001 0.004 -0.001c0.001 0.001 0.002 0.000 0.005 -0.001c0.002 -0.001 0.003 -0.002 0.004 -0.002c0.001 -0.001 0.001 -0.001 0.002 -0.000c0.001 0.000 0.002 0.000 0.003 -0.000c0.001 -0.000 0.003 -0.001 0.003 -0.001c0.000 -0.000 0.001 -0.000 0.002 -0.001c0.001 -0.001 0.002 -0.001 0.005 -0.001c0.003 -0.000 0.005 -0.001 0.007 -0.002c0.002 -0.001 0.003 -0.001 0.004 -0.001c0.002 0.000 0.007 -0.001 0.008 -0.003c0.001 -0.001 0.001 -0.001 0.003 -0.001c0.003 0.000 0.007 -0.000 0.009 -0.002c0.001 -0.001 0.002 -0.001 0.005 -0.001c0.004 -0.000 0.005 -0.001 0.007 -0.003c0.001 -0.001 0.002 -0.001 0.003 -0.001c0.002 0.001 0.003 0.001 0.006 -0.000c0.002 -0.000 0.003 -0.001 0.003 -0.002c0.000 -0.001 0.001 -0.001 0.004 -0.001c0.004 -0.000 0.007 -0.001 0.009 -0.002c0.001 -0.001 0.003 -0.002 0.003 -0.001c0.000 0.000 0.001 0.001 0.001 0.001c0.002 -0.000 0.007 -0.002 0.008 -0.003c0.001 -0.001 0.002 -0.001 0.005 -0.001c0.003 0.000 0.004 -0.000 0.005 -0.001c0.004 -0.002 0.005 -0.003 0.007 -0.002c0.002 0.000 0.006 -0.001 0.008 -0.002c0.001 -0.001 0.002 -0.001 0.005 -0.001c0.004 0.000 0.006 -0.000 0.008 -0.002c0.001 -0.001 0.002 -0.001 0.004 -0.001c0.003 0.000 0.008 -0.001 0.009 -0.003c0.001 -0.001 0.001 -0.001 0.003 -0.001c0.004 0.000 0.008 -0.000 0.009 -0.002c0.001 -0.001 0.002 -0.001 0.005 -0.001c0.002 -0.000 0.006 -0.001 0.008 -0.001c0.002 -0.001 0.006 -0.002 0.008 -0.002c0.002 -0.001 0.005 -0.001 0.006 -0.002c0.005 -0.003 0.006 -0.004 0.004 -0.006c-0.001 -0.001 -0.001 -0.003 -0.002 -0.004c-0.001 -0.003 -0.001 -0.003 0.000 -0.006c0.001 -0.002 0.002 -0.004 0.002 -0.006c0.000 -0.002 0.001 -0.003 0.002 -0.004c0.001 -0.002 0.002 -0.006 0.003 -0.008c0.000 -0.001 0.004 -0.005 0.007 -0.007c0.002 -0.001 0.002 -0.001 0.002 0.004c0.000 0.002 0.001 0.004 0.001 0.006c0.003 0.006 0.005 0.007 0.011 0.005c0.005 -0.001 0.010 -0.003 0.010 -0.003c0.000 -0.000 0.001 -0.001 0.001 -0.002c0.001 -0.001 0.001 -0.002 0.001 -0.006c0.000 -0.003 -0.000 -0.005 -0.001 -0.005c-0.000 -0.000 -0.001 -0.001 -0.001 -0.001c0.000 -0.000 -0.001 -0.002 -0.001 -0.003c-0.001 -0.002 -0.001 -0.003 -0.001 -0.007c0.000 -0.004 0.000 -0.005 0.001 -0.005c0.002 -0.001 0.005 -0.000 0.006 0.001c0.001 0.000 0.001 0.001 0.002 0.000c0.000 -0.000 0.001 -0.000 0.002 0.000c0.001 0.001 0.002 0.000 0.004 -0.001c0.003 -0.002 0.004 -0.004 0.004 -0.007c-0.000 -0.001 0.000 -0.003 0.001 -0.004c0.000 -0.001 0.001 -0.003 0.001 -0.005l0.000 -0.003l0.003 -0.001c0.002 -0.001 0.004 -0.001 0.006 -0.002c0.002 -0.000 0.005 -0.001 0.008 -0.002c0.002 -0.001 0.005 -0.001 0.007 -0.002c0.002 -0.000 0.004 -0.001 0.005 -0.002c0.001 -0.000 0.003 -0.001 0.004 -0.001c0.001 -0.000 0.002 -0.000 0.003 -0.001c0.001 -0.000 0.004 -0.001 0.006 -0.002c0.007 -0.002 0.010 -0.003 0.011 -0.003c0.000 -0.000 0.002 -0.001 0.003 -0.001c0.001 -0.000 0.003 -0.001 0.004 -0.001c0.001 -0.000 0.004 -0.001 0.006 -0.002c0.002 -0.000 0.005 -0.001 0.008 -0.002c0.002 -0.001 0.005 -0.001 0.007 -0.002c0.002 -0.000 0.004 -0.001 0.005 -0.002c0.001 -0.000 0.003 -0.001 0.004 -0.001c0.001 -0.000 0.002 -0.000 0.003 -0.001c0.002 -0.001 0.004 -0.001 0.014 -0.003c0.004 -0.001 0.005 -0.001 0.007 -0.000c0.003 0.001 0.005 0.001 0.008 -0.000c0.002 -0.000 0.004 -0.001 0.006 -0.002c0.002 -0.000 0.004 -0.001 0.005 -0.002c0.002 -0.001 0.004 -0.001 0.009 -0.001c0.005 -0.000 0.007 -0.000 0.010 -0.001c0.002 -0.001 0.003 -0.001 0.004 -0.001c0.000 -0.000 0.001 -0.000 0.002 -0.001c0.001 -0.001 0.002 -0.001 0.003 -0.001c0.003 0.000 0.007 -0.001 0.008 -0.002c0.001 -0.001 0.002 -0.001 0.003 -0.001c0.001 0.000 0.003 -0.000 0.004 -0.001c0.003 -0.001 0.008 -0.003 0.012 -0.004c0.002 -0.000 0.005 -0.001 0.008 -0.002c0.002 -0.001 0.006 -0.002 0.008 -0.002c0.002 -0.000 0.004 -0.001 0.004 -0.001c0.000 -0.000 0.002 -0.001 0.003 -0.001c0.001 -0.000 0.003 -0.001 0.004 -0.001c0.001 -0.000 0.002 -0.001 0.004 -0.001c0.003 -0.001 0.004 -0.002 0.006 -0.006c0.001 -0.002 0.001 -0.004 0.001 -0.008c-0.000 -0.007 -0.001 -0.010 -0.004 -0.017c-0.002 -0.005 -0.009 -0.009 -0.011 -0.008c-0.001 0.001 -0.005 0.002 -0.010 0.003c-0.003 0.001 -0.006 0.002 -0.012 0.003c-0.002 0.001 -0.004 0.001 -0.005 0.001c-0.001 -0.000 -0.003 0.000 -0.004 0.001c-0.004 0.002 -0.009 0.003 -0.012 0.003c-0.002 0.000 -0.004 0.001 -0.005 0.001c-0.001 0.001 -0.003 0.001 -0.004 0.001c-0.001 -0.000 -0.004 0.001 -0.006 0.002c-0.004 0.002 -0.008 0.003 -0.011 0.003c-0.002 -0.000 -0.006 0.002 -0.007 0.003c-0.000 0.000 -0.001 0.001 -0.001 0.001c-0.000 -0.000 -0.002 0.001 -0.004 0.002c-0.004 0.002 -0.011 0.004 -0.017 0.005c-0.001 0.000 -0.003 0.002 -0.004 0.003c-0.004 0.003 -0.005 0.004 -0.008 0.005c-0.001 0.000 -0.003 0.001 -0.005 0.001c-0.001 0.001 -0.003 0.001 -0.004 0.001c-0.001 -0.000 -0.002 0.000 -0.003 0.001c-0.002 0.001 -0.006 0.002 -0.012 0.003c-0.002 0.000 -0.004 0.001 -0.005 0.002c-0.001 0.000 -0.002 0.001 -0.003 0.001c-0.001 -0.000 -0.004 0.001 -0.011 0.003c-0.002 0.001 -0.004 0.001 -0.005 0.001c-0.001 -0.000 -0.003 0.000 -0.004 0.001c-0.002 0.001 -0.004 0.002 -0.012 0.003c-0.002 0.000 -0.004 0.001 -0.005 0.001c-0.001 0.000 -0.003 0.001 -0.004 0.001c-0.001 0.000 -0.004 0.001 -0.006 0.002c-0.002 0.001 -0.005 0.001 -0.006 0.002c-0.001 0.000 -0.003 0.001 -0.004 0.001c-0.003 0.001 -0.007 0.002 -0.008 0.002c-0.000 -0.000 0.000 -0.001 0.001 -0.002c0.002 -0.003 0.003 -0.005 0.002 -0.009c-0.000 -0.003 -0.000 -0.003 0.001 -0.004c0.001 -0.001 0.002 -0.001 0.004 -0.002c0.004 -0.001 0.005 -0.001 0.005 -0.003c0.001 -0.002 -0.000 -0.003 -0.003 -0.005c-0.002 -0.002 -0.002 -0.002 -0.002 -0.004c0.000 -0.002 0.000 -0.002 0.002 -0.003c0.001 -0.000 0.002 -0.001 0.002 -0.002c0.000 -0.001 -0.001 -0.004 -0.002 -0.005c-0.001 -0.001 -0.006 -0.000 -0.008 0.001c-0.001 0.000 -0.003 0.001 -0.003 0.001c-0.001 -0.000 -0.002 -0.000 -0.002 -0.002c-0.000 -0.001 -0.003 -0.003 -0.005 -0.006l-0.005 -0.004l-0.000 -0.004c-0.001 -0.007 -0.001 -0.007 -0.003 -0.009c-0.001 -0.001 -0.003 -0.001 -0.004 -0.001c-0.001 -0.000 -0.002 -0.000 -0.003 -0.001c-0.001 -0.001 -0.003 -0.001 -0.003 -0.001c-0.001 -0.000 -0.002 -0.000 -0.003 -0.001c-0.001 -0.001 -0.004 -0.001 -0.006 -0.002c-0.002 -0.000 -0.005 -0.001 -0.006 -0.001c-0.003 -0.001 -0.008 -0.001 -0.010 -0.000zM0.496 -0.228c0.000 0.001 -0.000 0.001 -0.002 0.001c-0.001 0.000 -0.004 0.001 -0.006 0.001c-0.005 0.002 -0.008 0.002 -0.009 0.001c-0.001 -0.001 -0.001 -0.001 -0.000 -0.002c0.002 -0.002 0.011 -0.004 0.015 -0.003c0.001 0.000 0.002 0.000 0.002 0.001zM0.245 -0.221c0.001 0.001 -0.001 0.003 -0.003 0.003c-0.001 0.000 -0.003 0.001 -0.003 0.002c-0.001 0.001 -0.002 0.001 -0.005 0.001c-0.002 -0.000 -0.004 -0.001 -0.004 -0.001c0.000 -0.001 0.001 -0.002 0.006 -0.003c0.003 -0.001 0.005 -0.001 0.005 -0.002c0.001 -0.001 0.002 -0.001 0.003 0.000zM-0.203 0.040c0.000 0.000 0.000 0.004 0.000 0.009l0.000 0.009l-0.002 0.004c-0.002 0.003 -0.003 0.005 -0.004 0.005c-0.002 0.001 -0.004 0.004 -0.004 0.006c0.000 0.002 -0.000 0.002 -0.004 0.003c-0.009 0.003 -0.014 0.004 -0.014 0.003c0.000 -0.000 0.001 -0.001 0.001 -0.002c0.001 -0.001 0.001 -0.002 0.000 -0.003c-0.001 -0.001 -0.003 -0.007 -0.003 -0.013c-0.000 -0.003 -0.000 -0.015 -0.000 -0.016c0.001 -0.001 0.006 -0.002 0.008 -0.002c0.001 -0.000 0.003 -0.000 0.004 -0.001c0.001 -0.001 0.003 -0.001 0.004 -0.001c0.001 -0.000 0.003 -0.000 0.004 -0.001c0.005 -0.001 0.009 -0.002 0.009 -0.002zM-0.351 0.047c0.000 0.001 0.000 0.002 0.000 0.002c-0.000 0.001 -0.005 0.004 -0.007 0.004c-0.001 -0.000 -0.003 0.000 -0.004 0.001c-0.001 0.001 -0.003 0.001 -0.004 0.001c-0.002 -0.000 -0.002 -0.000 -0.002 -0.002c-0.000 -0.002 0.000 -0.002 0.001 -0.003c0.001 -0.000 0.002 -0.001 0.004 -0.001c0.001 -0.000 0.003 -0.001 0.004 -0.001c0.001 -0.001 0.003 -0.001 0.008 -0.002c0.000 -0.000 0.001 0.000 0.001 0.001zM-0.247 0.065c0.001 0.002 0.001 0.004 0.002 0.005c0.000 0.001 0.001 0.002 0.002 0.003c0.003 0.006 0.003 0.006 0.006 0.006c0.004 0.000 0.004 0.000 0.005 0.001c0.001 0.001 0.000 0.002 -0.003 0.003c-0.004 0.001 -0.006 0.001 -0.008 -0.001c-0.002 -0.002 -0.005 -0.006 -0.005 -0.008c-0.000 -0.001 -0.000 -0.002 -0.001 -0.003c-0.001 -0.003 -0.001 -0.008 -0.001 -0.009c0.001 -0.002 0.001 -0.001 0.003 0.003zM-0.446 0.073c0.000 0.001 -0.000 0.002 -0.005 0.003c-0.004 0.001 -0.005 0.001 -0.005 -0.000c0.000 -0.001 0.001 -0.002 0.004 -0.003c0.004 -0.001 0.006 -0.001 0.006 0.000z"/>
</svg>
